<svg xmlns="http://www.w3.org/2000/svg" width="215.512" height="20.022" viewBox="0 0 215.512 20.022">
  <g id="Group_366" data-name="Group 366" transform="translate(-136.805 -486.011)">
    <path id="Path_465" data-name="Path 465" d="M764.2,497.558a7.455,7.455,0,0,0-7.276,0,6.677,6.677,0,0,0-2.5,2.607,8.04,8.04,0,0,0,0,7.395,6.727,6.727,0,0,0,2.513,2.619,7.33,7.33,0,0,0,7.253,0,6.735,6.735,0,0,0,2.512-2.619,8.041,8.041,0,0,0,0-7.395A6.677,6.677,0,0,0,764.2,497.558Z" transform="translate(-456.937 -7.853)" fill="none"/>
    <path id="Path_466" data-name="Path 466" d="M851.068,497.558a7.455,7.455,0,0,0-7.276,0,6.675,6.675,0,0,0-2.5,2.607,8.041,8.041,0,0,0,0,7.395,6.729,6.729,0,0,0,2.512,2.619,7.33,7.33,0,0,0,7.253,0,6.734,6.734,0,0,0,2.512-2.619,8.043,8.043,0,0,0,0-7.395A6.677,6.677,0,0,0,851.068,497.558Z" transform="translate(-521.296 -7.853)" fill="none"/>
    <path id="Path_467" data-name="Path 467" d="M482.726,501.263a3.186,3.186,0,0,0-1.191-2.56,4.569,4.569,0,0,0-3.032-1h-3.465v6.826H478.5a4.841,4.841,0,0,0,3.032-.913A2.84,2.84,0,0,0,482.726,501.263Z" transform="translate(-250.601 -8.667)" fill="none"/>
    <path id="Path_468" data-name="Path 468" d="M149.588,503.48a1.721,1.721,0,0,0-1.243-.507h-8.062v-14.3a1.732,1.732,0,0,0-1.751-1.751,1.692,1.692,0,0,0-1.219.507,1.72,1.72,0,0,0-.507,1.243v16.046a1.72,1.72,0,0,0,.489,1.237,1.679,1.679,0,0,0,1.238.514h9.813a1.72,1.72,0,0,0,1.243-.507,1.7,1.7,0,0,0,.507-1.243A1.72,1.72,0,0,0,149.588,503.48Z" transform="translate(0 -0.678)" fill="#ff1800"/>
    <path id="Path_469" data-name="Path 469" d="M208.192,503.162h-8.963v-4.889h6.284a1.727,1.727,0,0,0,1.218-.459,1.663,1.663,0,0,0,0-2.394,1.728,1.728,0,0,0-1.218-.459h-6.284v-4.723h8.963a1.745,1.745,0,0,0,1.23-.446,1.572,1.572,0,0,0,.5-1.186,1.641,1.641,0,0,0-.49-1.214,1.716,1.716,0,0,0-1.237-.465H197.479a1.713,1.713,0,0,0-1.751,1.751v16.046a1.732,1.732,0,0,0,1.751,1.751h10.713a1.716,1.716,0,0,0,1.236-.465,1.64,1.64,0,0,0,.491-1.214,1.573,1.573,0,0,0-.5-1.186A1.744,1.744,0,0,0,208.192,503.162Z" transform="translate(-43.657 -0.678)" fill="#099ff9"/>
    <path id="Path_470" data-name="Path 470" d="M272.529,487.4a1.634,1.634,0,0,0-1.184-.472H258.664a1.656,1.656,0,1,0,0,3.312h4.6v14.485a1.732,1.732,0,0,0,1.75,1.751,1.72,1.72,0,0,0,1.244-.507,1.7,1.7,0,0,0,.507-1.243V490.238h4.578a1.675,1.675,0,0,0,1.184-2.84Z" transform="translate(-89.06 -0.678)" fill="#09bd00"/>
    <path id="Path_471" data-name="Path 471" d="M340.761,487.4a1.633,1.633,0,0,0-1.184-.472H326.9a1.656,1.656,0,1,0,0,3.312h4.6v14.485a1.732,1.732,0,0,0,1.751,1.751,1.72,1.72,0,0,0,1.243-.507,1.7,1.7,0,0,0,.507-1.243V490.238h4.578a1.675,1.675,0,0,0,1.184-2.84Z" transform="translate(-139.614 -0.678)" fill="#f9c700"/>
    <path id="Path_472" data-name="Path 472" d="M408.211,503.162h-8.963v-4.889h6.284a1.727,1.727,0,0,0,1.218-.459,1.663,1.663,0,0,0,0-2.394,1.728,1.728,0,0,0-1.219-.459h-6.284v-4.723h8.963a1.744,1.744,0,0,0,1.23-.446,1.572,1.572,0,0,0,.5-1.186,1.641,1.641,0,0,0-.49-1.214,1.716,1.716,0,0,0-1.237-.465H397.5a1.713,1.713,0,0,0-1.751,1.751v16.046a1.732,1.732,0,0,0,1.751,1.751h10.713a1.716,1.716,0,0,0,1.236-.465,1.64,1.64,0,0,0,.491-1.214,1.574,1.574,0,0,0-.5-1.186A1.746,1.746,0,0,0,408.211,503.162Z" transform="translate(-191.854 -0.678)" fill="#ff1800"/>
    <path id="Path_473" data-name="Path 473" d="M476.837,503.759l-3.775-5.314a6.313,6.313,0,0,0,2.279-1.873,5.383,5.383,0,0,0,1.078-3.3,5.9,5.9,0,0,0-.966-3.32,6.344,6.344,0,0,0-2.677-2.246,8.979,8.979,0,0,0-3.8-.783H464.1a2.01,2.01,0,0,0-1.336.466,1.634,1.634,0,0,0-.59,1.285v16.046a1.644,1.644,0,0,0,.583,1.267,2.124,2.124,0,0,0,2.706-.006,1.663,1.663,0,0,0,.563-1.261v-5.384h3.167l4.5,6.324a2.118,2.118,0,0,0,2.97.362,1.535,1.535,0,0,0,.542-1.184A1.845,1.845,0,0,0,476.837,503.759Zm-4.162-10.484a2.327,2.327,0,0,1-.988,1.947,4.362,4.362,0,0,1-2.717.806h-2.947v-5.79h2.947a4.033,4.033,0,0,1,2.7.875A2.667,2.667,0,0,1,472.675,493.275Z" transform="translate(-241.068 -0.678)" fill="#09bd00"/>
    <path id="Path_474" data-name="Path 474" d="M543.252,496.018a7.967,7.967,0,0,0-4.707-1.852,6.4,6.4,0,0,1-3.275-.973,2.066,2.066,0,0,1-.809-1.664,1.728,1.728,0,0,1,.871-1.588,4.945,4.945,0,0,1,2.64-.62,4.311,4.311,0,0,1,2.17.487,4.014,4.014,0,0,1,1.409,1.432,1.732,1.732,0,0,0,.665.677,1.824,1.824,0,0,0,.923.247,1.637,1.637,0,0,0,.894-.247l.01-.006.009-.006a1.518,1.518,0,0,0,.7-1.278,2.12,2.12,0,0,0-.365-1.13,7.627,7.627,0,0,0-2.544-2.539,7.169,7.169,0,0,0-3.7-.9,9.881,9.881,0,0,0-3.564.615,5.936,5.936,0,0,0-2.591,1.846,4.638,4.638,0,0,0-.975,2.939,5.039,5.039,0,0,0,1.865,3.985,8.7,8.7,0,0,0,4.908,1.84,4.924,4.924,0,0,1,2.875,1.039,2.511,2.511,0,0,1,.876,1.93,2.049,2.049,0,0,1-1,1.808,4.843,4.843,0,0,1-2.724.731,5.534,5.534,0,0,1-2.538-.583,3.008,3.008,0,0,1-1.447-1.32,1.873,1.873,0,0,0-.7-.821,1.817,1.817,0,0,0-1.007-.31,1.356,1.356,0,0,0-.366.039,1.839,1.839,0,0,0-.957.512,1.406,1.406,0,0,0-.4.986,1.765,1.765,0,0,0,.159.674,6.165,6.165,0,0,0,2.823,2.979,9.04,9.04,0,0,0,4.434,1.108,9.4,9.4,0,0,0,3.474-.641,6.106,6.106,0,0,0,2.676-1.994,5.235,5.235,0,0,0,1.03-3.24A5.406,5.406,0,0,0,543.252,496.018Z" transform="translate(-291.612 -0.034)" fill="#099ff9"/>
    <path id="Path_475" data-name="Path 475" d="M610.726,500.9a1.871,1.871,0,0,0-1.081.38l-.006,0-.006,0a6.7,6.7,0,0,1-4.051,1.46,5.8,5.8,0,0,1-3.126-.893,6.567,6.567,0,0,1-2.286-2.441,7.213,7.213,0,0,1,0-6.79,6.547,6.547,0,0,1,2.285-2.452,5.8,5.8,0,0,1,3.126-.893,6.107,6.107,0,0,1,2.2.331,6.434,6.434,0,0,1,1.751,1.109,1.8,1.8,0,0,0,1.166.432,1.663,1.663,0,0,0,1.14-.44,1.527,1.527,0,0,0,.516-1.168,1.889,1.889,0,0,0-.135-.733,1.623,1.623,0,0,0-.539-.647,9.9,9.9,0,0,0-2.809-1.643,9.758,9.758,0,0,0-3.293-.5,9.342,9.342,0,0,0-4.9,1.343,9.706,9.706,0,0,0-3.491,3.628,10.2,10.2,0,0,0-1.274,5.028,10.312,10.312,0,0,0,1.274,5.063,9.585,9.585,0,0,0,3.493,3.63,9.4,9.4,0,0,0,4.9,1.33,9.555,9.555,0,0,0,6.132-2.177l.022-.017.02-.02a1.784,1.784,0,0,0,.1-2.437A1.5,1.5,0,0,0,610.726,500.9Z" transform="translate(-340.161)" fill="#f9c700"/>
    <path id="Path_476" data-name="Path 476" d="M686.2,487.415a1.711,1.711,0,0,0-1.23-.489,1.73,1.73,0,0,0-1.235.482,1.686,1.686,0,0,0-.516,1.252v6.2h-9.184v-6.2a1.686,1.686,0,0,0-.5-1.246,1.835,1.835,0,0,0-2.487-.006,1.684,1.684,0,0,0-.516,1.252V504.5a1.751,1.751,0,1,0,3.5,0v-6.455h9.184V504.5a1.739,1.739,0,1,0,3.477,0V488.661A1.686,1.686,0,0,0,686.2,487.415Z" transform="translate(-395.446 -0.678)" fill="#09bd00"/>
    <path id="Path_477" data-name="Path 477" d="M760.971,490.852a9.108,9.108,0,0,0-3.54-3.566,10.983,10.983,0,0,0-10.274,0,9.024,9.024,0,0,0-3.53,3.568,11.288,11.288,0,0,0,0,10.323,9,9,0,0,0,3.53,3.58,11,11,0,0,0,10.287,0,9.109,9.109,0,0,0,3.528-3.578,11.194,11.194,0,0,0,0-10.326Zm-2.144,5.158a7.147,7.147,0,0,1-.838,3.45,6.252,6.252,0,0,1-2.322,2.421,6.813,6.813,0,0,1-6.722,0,6.248,6.248,0,0,1-2.322-2.421,7.523,7.523,0,0,1,0-6.9,6.194,6.194,0,0,1,2.309-2.409,6.937,6.937,0,0,1,6.748,0,6.2,6.2,0,0,1,2.31,2.409A7.149,7.149,0,0,1,758.826,496.01Z" transform="translate(-448.677)" fill="#ff1800"/>
    <g id="Group_365" data-name="Group 365" transform="translate(316.206 486.011)">
      <path id="Path_478" data-name="Path 478" d="M852.285,499.486a6.938,6.938,0,0,0-6.748,0,6.191,6.191,0,0,0-2.31,2.409,7.523,7.523,0,0,0,0,6.9,6.248,6.248,0,0,0,2.322,2.421,6.814,6.814,0,0,0,6.723,0,6.255,6.255,0,0,0,2.322-2.421,7.525,7.525,0,0,0,0-6.9A6.2,6.2,0,0,0,852.285,499.486Z" transform="translate(-838.983 -495.346)" fill="none"/>
      <path id="Path_479" data-name="Path 479" d="M847.835,490.852a9.109,9.109,0,0,0-3.541-3.566,10.982,10.982,0,0,0-10.274,0,9.023,9.023,0,0,0-3.53,3.568,11.289,11.289,0,0,0,0,10.323,9,9,0,0,0,3.531,3.58,11,11,0,0,0,10.287,0,9.109,9.109,0,0,0,3.528-3.578,11.194,11.194,0,0,0,0-10.326Zm-2.982,8.608a6.255,6.255,0,0,1-2.322,2.421,6.813,6.813,0,0,1-6.722,0,6.247,6.247,0,0,1-2.322-2.421,7.523,7.523,0,0,1,0-6.9,6.191,6.191,0,0,1,2.31-2.409,6.937,6.937,0,0,1,6.748,0,6.2,6.2,0,0,1,2.31,2.409,7.526,7.526,0,0,1,0,6.9Z" transform="translate(-829.241 -486.011)" fill="#f9c700"/>
    </g>
    <path id="Path_480" data-name="Path 480" d="M930.1,503.373a1.723,1.723,0,0,0-1.242-.5H920.8v-14.2a1.739,1.739,0,1,0-3.478,0v15.943a1.708,1.708,0,0,0,.491,1.233,1.682,1.682,0,0,0,1.236.51h9.813a1.748,1.748,0,0,0,1.242-2.982Z" transform="translate(-578.296 -0.678)" fill="#09bd00"/>
  </g>
</svg>
